<svg xmlns="http://www.w3.org/2000/svg" viewBox="0 0 200 200" fill="#0078D4">
  <rect x="20" y="65" width="160" height="70" rx="8" fill="none" stroke="#0078D4" stroke-width="5"/>
  <rect x="35" y="78" width="14" height="10" rx="2"/>
  <rect x="55" y="78" width="14" height="10" rx="2"/>
  <rect x="75" y="78" width="14" height="10" rx="2"/>
  <rect x="95" y="78" width="14" height="10" rx="2"/>
  <rect x="115" y="78" width="14" height="10" rx="2"/>
  <rect x="135" y="78" width="14" height="10" rx="2"/>
  <rect x="45" y="95" width="14" height="10" rx="2"/>
  <rect x="65" y="95" width="14" height="10" rx="2"/>
  <rect x="85" y="95" width="14" height="10" rx="2"/>
  <rect x="105" y="95" width="14" height="10" rx="2"/>
  <rect x="125" y="95" width="14" height="10" rx="2"/>
  <rect x="55" y="112" width="70" height="10" rx="2"/>
</svg>
